<?xml version="1.0" encoding="UTF-8" standalone="no"?>
<!-- Created with Inkscape (http://www.inkscape.org/) -->

<svg
   xmlns:dc="http://purl.org/dc/elements/1.1/"
   xmlns:cc="http://creativecommons.org/ns#"
   xmlns:rdf="http://www.w3.org/1999/02/22-rdf-syntax-ns#"
   xmlns:svg="http://www.w3.org/2000/svg"
   xmlns="http://www.w3.org/2000/svg"
   version="1.1"
   width="884.84998"
   height="167.58749"
   id="svg2"
   xml:space="preserve"><metadata
     id="metadata8"><rdf:RDF><cc:Work
         rdf:about=""><dc:format>image/svg+xml</dc:format><dc:type
           rdf:resource="http://purl.org/dc/dcmitype/StillImage" /><dc:title></dc:title></cc:Work></rdf:RDF></metadata><defs
     id="defs6" /><g
     transform="matrix(1.25,0,0,-1.25,0,167.5875)"
     id="g10"><g
       transform="scale(0.1,0.1)"
       id="g12"><path
         d="m 531.555,672.555 0,-21.602 C 531.555,501.852 426.395,387.34 274.426,387.34 122.441,387.34 0,518.434 0,668.961 0,825.25 125.332,953.465 281.621,953.465 c 84.27,0 167.805,-38.188 221.113,-105.16 L 455.195,802.926 C 416.316,856.227 350.754,891.52 284.504,891.52 162.781,891.52 67.7148,792.84 67.7148,671.117 67.7148,557.32 161.34,449.273 278.75,449.273 c 84.258,0 175.012,72.754 177.891,161.348 l -200.227,0 63.344,61.934 211.797,0"
         id="path14"
         style="fill:#7b7979;fill-opacity:1;fill-rule:nonzero;stroke:none" /><path
         d="m 757.988,816.605 -96.511,-219.675 193.027,0 -96.516,219.675 z M 633.391,534.984 571.438,398.852 l -72.747,0 259.297,566.125 259.292,-566.125 -72.749,0 -61.933,136.132 -249.207,0"
         id="path16"
         style="fill:#7b7979;fill-opacity:1;fill-rule:nonzero;stroke:none" /><path
         d="m 1130.35,460.816 164.94,0 0,-61.964 -232.63,0 0,543.078 67.69,0 0,-481.114"
         id="path18"
         style="fill:#7b7979;fill-opacity:1;fill-rule:nonzero;stroke:none" /><path
         d="m 1339.95,941.93 291.71,0 0,-61.934 -224.01,0 0,-151.98 217.53,0 0,-61.946 -217.53,0 0,-205.254 224.01,0 0,-61.964 -291.71,0 0,543.078"
         id="path20"
         style="fill:#7b7979;fill-opacity:1;fill-rule:nonzero;stroke:none" /><path
         d="m 1782.9,684.809 21.61,0 c 69.15,0 144.05,12.953 144.05,99.386 0,85 -80.66,97.235 -147.64,97.235 l -18.02,0 0,-196.621 z m 270.11,-285.957 -82.11,0 -159.9,229.777 -28.1,0 0,-229.777 -67.69,0 0,543.078 82.1,0 c 48.26,0 100.12,-0.723 143.33,-25.196 45.39,-26.66 71.31,-77.793 71.31,-129.648 0,-77.793 -51.86,-142.617 -130.36,-151.973 l 171.42,-236.261"
         id="path22"
         style="fill:#7b7979;fill-opacity:1;fill-rule:nonzero;stroke:none" /><path
         d="m 2307.99,816.605 -96.52,-219.675 193.03,0 -96.51,219.675 z m -124.61,-281.621 -61.96,-136.132 -72.74,0 259.31,566.125 259.27,-566.125 -72.73,0 -61.94,136.132 -249.21,0"
         id="path24"
         style="fill:#7b7979;fill-opacity:1;fill-rule:nonzero;stroke:none" /><path
         d="m 4810.74,838.219 c -38.89,34.57 -92.19,53.301 -143.32,53.301 -121.74,0 -214.64,-101.551 -214.64,-221.836 0,-118.848 92.2,-220.411 213.19,-220.411 53.3,0 104.43,20.176 144.77,56.192 l 0,-79.961 c -41.77,-24.492 -95.08,-38.164 -142.61,-38.164 -154.86,0 -283.05,123.164 -283.05,280.183 0,160.618 128.92,285.942 288.82,285.942 47.54,0 95.79,-11.535 136.84,-36.731 l 0,-78.515"
         id="path26"
         style="fill:#7b7979;fill-opacity:1;fill-rule:nonzero;stroke:none" /><path
         d="m 4959.11,460.816 164.95,0 0,-61.964 -232.64,0 0,543.078 67.69,0 0,-481.114"
         id="path28"
         style="fill:#7b7979;fill-opacity:1;fill-rule:nonzero;stroke:none" /><path
         d="m 5227.06,941.93 0,-320.508 c 0,-88.594 26.65,-170.703 131.08,-170.703 104.44,0 131.09,82.109 131.09,170.703 l 0,320.508 67.71,0 0,-343.555 c 0,-119.57 -74.2,-211.035 -198.8,-211.035 -124.6,0 -198.79,91.465 -198.79,211.035 l 0,343.555 67.71,0"
         id="path30"
         style="fill:#7b7979;fill-opacity:1;fill-rule:nonzero;stroke:none" /><path
         d="m 5891.86,838.941 c -20.18,33.848 -46.11,51.133 -87.15,51.133 -43.22,0 -90.75,-29.531 -90.75,-77.07 0,-42.481 41.76,-64.824 75.63,-77.781 l 38.89,-15.129 c 77.07,-30.254 134.68,-72.746 134.68,-163.496 0,-98.672 -76.35,-169.258 -173.57,-169.258 -87.89,0 -156.31,64.824 -167.82,151.973 l 68.42,14.414 c -0.73,-59.797 46.81,-103.008 105.15,-103.008 58.34,0 100.11,48.984 100.11,105.879 0,58.34 -46.82,83.543 -93.64,102.988 l -37.44,15.859 c -61.95,26.653 -118.13,61.934 -118.13,137.559 0,87.871 77.79,140.461 159.9,140.461 60.51,0 110.21,-29.524 139.74,-82.113 l -54.02,-32.411"
         id="path32"
         style="fill:#7b7979;fill-opacity:1;fill-rule:nonzero;stroke:none" /><path
         d="m 6183.55,398.852 -67.69,0 0,481.144 -128.96,0 0,61.934 325.57,0 0,-61.934 -128.92,0 0,-481.144"
         id="path34"
         style="fill:#7b7979;fill-opacity:1;fill-rule:nonzero;stroke:none" /><path
         d="m 6365.78,941.93 291.7,0 0,-61.934 -224,0 0,-151.98 217.52,0 0,-61.946 -217.52,0 0,-205.254 224,0 0,-61.964 -291.7,0 0,543.078"
         id="path36"
         style="fill:#7b7979;fill-opacity:1;fill-rule:nonzero;stroke:none" /><path
         d="m 6808.74,684.809 21.61,0 c 69.14,0 144.03,12.953 144.03,99.386 0,85 -80.66,97.235 -147.64,97.235 l -18,0 0,-196.621 z m 270.09,-285.957 -82.11,0 -159.88,229.777 -28.1,0 0,-229.777 -67.71,0 0,543.078 82.11,0 c 48.27,0 100.12,-0.723 143.34,-25.196 45.37,-26.66 71.28,-77.793 71.28,-129.648 0,-77.793 -51.85,-142.617 -130.35,-151.973 l 171.42,-236.261"
         id="path38"
         style="fill:#7b7979;fill-opacity:1;fill-rule:nonzero;stroke:none" /><path
         d="m 3974.45,480.387 c 25.38,15.722 58.72,7.871 74.43,-17.5 15.72,-25.403 7.89,-58.731 -17.49,-74.453 -25.4,-15.735 -58.72,-7.891 -74.46,17.5 -15.7,25.398 -7.9,58.718 17.52,74.453"
         id="path40"
         style="fill:#f36917;fill-opacity:1;fill-rule:nonzero;stroke:none" /><path
         d="m 3840.89,280.449 c 25.39,15.742 58.71,7.891 74.46,-17.508 15.71,-25.371 7.87,-58.73 -17.5,-74.453 -25.42,-15.718 -58.72,-7.879 -74.46,17.5 -15.71,25.41 -7.9,58.731 17.5,74.461"
         id="path42"
         style="fill:#f36917;fill-opacity:1;fill-rule:nonzero;stroke:none" /><path
         d="m 3641.14,146.859 c 25.4,15.719 58.72,7.903 74.44,-17.5 15.74,-25.379 7.92,-58.7184 -17.48,-74.4371 -25.4,-15.7227 -58.72,-7.9024 -74.47,17.5078 -15.71,25.3789 -7.88,58.7183 17.51,74.4293"
         id="path44"
         style="fill:#f36917;fill-opacity:1;fill-rule:nonzero;stroke:none" /><path
         d="m 4021.45,716.48 c 25.37,15.723 58.7,7.903 74.42,-17.5 15.75,-25.39 7.89,-58.73 -17.48,-74.445 -25.41,-15.73 -58.72,-7.898 -74.44,17.512 -15.75,25.391 -7.91,58.711 17.5,74.433"
         id="path46"
         style="fill:#f36917;fill-opacity:1;fill-rule:nonzero;stroke:none" /><path
         d="m 3974.58,952.32 c 25.37,15.735 58.71,7.891 74.44,-17.5 15.75,-25.382 7.87,-58.711 -17.5,-74.433 -25.4,-15.742 -58.74,-7.891 -74.44,17.5 -15.73,25.39 -7.9,58.691 17.5,74.433"
         id="path48"
         style="fill:#f36917;fill-opacity:1;fill-rule:nonzero;stroke:none" /><path
         d="m 3819.1,1086.64 c -10.49,27.93 3.63,59.14 31.6,69.61 27.95,10.52 59.14,-3.61 69.65,-31.59 10.51,-27.95 -3.65,-59.1 -31.61,-69.62 -27.96,-10.49 -59.14,3.62 -69.64,31.6"
         id="path50"
         style="fill:#f36917;fill-opacity:1;fill-rule:nonzero;stroke:none" /><path
         d="m 3618.67,1220.82 c -10.49,27.97 3.64,59.12 31.59,69.63 27.96,10.5 59.12,-3.64 69.62,-31.59 10.55,-27.95 -3.62,-59.12 -31.57,-69.65 -27.96,-10.49 -59.15,3.66 -69.64,31.61"
         id="path52"
         style="fill:#f36917;fill-opacity:1;fill-rule:nonzero;stroke:none" /><path
         d="m 3526.55,673.219 -93.87,-97.285 287.46,0 C 3715.62,436.773 3573.08,322.52 3440.72,322.52 c -184.41,0 -331.48,169.703 -331.48,348.433 0,191.172 149.34,346.177 340.53,346.177 104.06,0 207,-55.435 268.1,-139.157 l 0.02,0.011 2.49,-3.359 67.38,70.051 4.79,4.558 c -83.71,105.216 -214.94,165.176 -347.31,165.176 -245.5,0 -442.32,-201.367 -442.32,-446.855 0,-236.426 192.3,-442.317 431.01,-442.317 238.68,0 403.86,179.883 403.86,414.035 l 0,33.946 -311.24,0"
         id="path54"
         style="fill:#f36917;fill-opacity:1;fill-rule:nonzero;stroke:none" /><path
         d="m 3433.54,108.16 c -310.44,0.051 -562.08,251.719 -562.08,562.168 0,310.457 251.64,562.132 562.08,562.172 l 0,108.16 C 3063.35,1340.63 2763.28,1040.52 2763.28,670.328 2763.28,300.129 3063.35,0.03125 3433.54,0 l 0,108.16"
         id="path56"
         style="fill:#f36917;fill-opacity:1;fill-rule:nonzero;stroke:none" /></g></g></svg>